<svg height="18" viewBox="0 0 206 18" width="206" xmlns="http://www.w3.org/2000/svg"><path d="m97.939265 27.3642523h-.0002288s2.1937308.9830183 1.8210987 3.6348817c-.4755066 3.383412-2.6667232 4.8236482-7.2389016 4.8236482h-7.5212333l2.2490546-16.0026242h7.2697636c4.2749867 0 5.9436038 1.3030709 5.5131328 4.3664303-.3438278 2.4461154-2.092686 3.177664-2.092686 3.177664zm-5.7520286 5.3037268c1.3487926 0 2.0138159-.5029396 2.1777284-1.6688451.1895167-1.3487926-.2985635-1.9431758-1.670217-1.9431758h-1.6231233l-.5077406 3.6120209zm-.2607286-9.693018h.0001142l-.4467016 3.1776639h1.3716535c1.051601 0 1.5826594-.5258005 1.7497724-1.7145669.1444811-1.0287401-.2516982-1.463097-1.3032993-1.463097zm0 0h-.0001143zm22.9721092 7.1783199h-1.211627l-.796703 5.6695012h-5.120839l2.249054-16.0026242h7.68126c4.709344 0 6.220906 2.5832808 5.841872 5.280866-.292391 2.0803411-1.438178 3.7263253-3.722439 4.5264565l2.786972 6.1953017h-5.37231zm-.745494-3.154803h2.309179c1.120184 0 1.839845-.8915748 1.981125-1.897454s-.327825-1.897454-1.448009-1.897454h-2.30895zm19.617846-7.17832h5.12084l-2.249055 16.0026242h-5.12084zm28.868961 8.0013121c-.7871 5.6009184-3.639225 8.0013121-9.537335 8.0013121h-6.858267l2.249054-16.0026242h6.858268c5.89811 0 8.075381 2.4003936 7.288281 8.0013121zm-8.015258-4.6179001h-1.485958l-1.298041 9.2358002h1.485958c2.286089 0 3.487886-1.3945144 3.940989-4.6179001s-.333997-4.6179001-2.642947-4.6179001zm24.645643 6.332467.443273-3.1548031h8.184199l-.202319 1.4402362c-.832136 5.9209709-3.634882 8.4585299-9.372965 8.4585299-6.035276 0-8.284787-2.537559-7.452651-8.4585299s3.794908-8.4585299 9.830183-8.4585299c4.800788 0 6.969829 1.6459842 7.184493 5.486614h-4.846509c-.140137-1.2802099-.974332-1.8517322-2.848925-1.8517322-2.286089 0-3.448565 1.4402361-3.924072 4.8236481-.472306 3.3605511.305193 4.8236481 2.568421 4.8236481 2.331811 0 3.469369-.9372965 3.774562-3.1090812zm30.106194-6.332467h-6.995662l-.379033 2.6975852h6.080997l-.478707 3.4062729h-6.080997l-.440073 3.1319421h6.995433l-.475506 3.383412h-12.116273l2.249055-16.0026242h12.116272zm36.219195 1.897454h-.000228c-.382234 2.7204461-2.619858 5.3037269-7.329202 5.3037269h-2.377533l-.761496 5.4180313h-5.12084l2.249055-16.0026242h7.498372c4.709344 0 6.220906 2.5832808 5.841872 5.280866zm-5.121068 0h.000229c.141281-1.0058792-.350686-1.897454-1.47087-1.897454h-2.103202l-.533344 3.794908h2.103202c1.120183 0 1.862705-.8915748 2.003985-1.897454zm19.914122 10.7217582-.28416-2.8576115h-4.503596l-1.133215 2.8576115h-5.120839l7.141285-16.0026242h7.17832l2.117376 16.0026242zm-1.164076-11.8876637-2.357415 5.8752492h2.926194zm24.850703 6.0124145-.825735 5.8752492h-4.86937l.825735-5.8752492-4.314764-10.127375h5.623779l1.824757 5.2351442 3.273222-5.2351442h5.372309z" fill="#fff" fill-rule="evenodd" transform="translate(-85 -19)"/></svg>